<svg xmlns="http://www.w3.org/2000/svg" viewBox="0 0 496 289">
  <path fill="#8d9359" stroke="#fff" stroke-width="1" d="m496 143-2 2-2 3-1 4-8 7-1 6-5 2 4 2-7 22-4 1v2l-2 2-2 3-1 6-5 1-6 8h-5l-5-6-6-6h-16l-7 6v5l-3 3-11 3-3-4-2 3-5-5-7 1-5-2-4 1h-19l-13 7-8-7h-13l-2 2-5-2-9-1-6 4-8-5-6 4-12 1-13-1-4 3-6 11-7 1-2 5-8 4-15-3-8 5h-7l-4 5-8 1-2 2-1 6-5 5-2 5-3 6-5-1-3 5 1 1v7h-4l-10 6-6-6h-5l-17-16-3 3-3-3-4 3-2-9-3-4h-2l-2-4 1-4-2-3-3 1-4-7v-4l1-6-3-8h-6l-6-13 6-4-5-10v-6l-5-5-6-4-9-5-15-10-4-3-3 2-9-7-16 1-7-1-6 5-3-8-2-6-1-3 3-2-3-8 1-9-5-6 7-10 1-12 10-5 2-13 8-6 5 2 6-6 4 3 4-2 1-9 4-8 12 6-2 4h11l7 5 1 4 9 2 5-5 5 1 3 7 11 5 11-6 6 3v-7l7-3-3-4 5-3 1-5 12-2 2 4-6 5 4 5 16-9 2-7-8-14 2-9 6 1 8-7 3-6h6v-6l11-4V3l10-3 3 2 3 5 8-1 2 3 2 8 12 2v3l2-1 5 3v5l3-1h4l4 9 3-1 3 1 6 6 5-5 20 1 7 4 3-1 5 1 2-7 8-1 12 5 2-8 1 2 1-2 4 6 10-2 1-7h5l3 4 2-1h6l4 3 4-6 2 1 4 6 5-7 6 3 9-9 5 5 7-4 4 4v9h7v12h5l2 2-4 4 1 4-9 9 1 4 5-1 4 5h7l3 2 5 9 13 5h12l-5 6v16l-1 3 5 4 10 16 9-1 10 7Z"/>
</svg>
