<svg xmlns="http://www.w3.org/2000/svg" viewBox="0 0 496 441">
  <path fill="#8d9359" stroke="#fff" stroke-width="1" d="m360 40-6 8-11 1-4 3-1 9v6h-10l-11-6-8 11h-6l-2-2 2 8-2 7-13 1-3 5 5 5 8-5 3 3-4 5 5 4-1 6-11-1-2 7-6-6-6 5-8-7-1-6-4-2V88h-10l-5-10-5-1-15 3-11 1-5-10h-3l6-15 5-5 5 1 1-1-1-4v-2h3l7-3-2-3 2-5h13l7 1 13-1 8-6 6 5 7-7h22l9-5 16 6 1 7 13-2 7 4 3 4Z"/>
  <path fill="#8d9359" stroke="#fff" stroke-width="1" d="M492 218h-7l2 5-4 5 8 9-3 8-7 2-4 7-9 2 5 13h3l-8 12h-9l-5 13 3 11 5-1 3 5v9h-1l-7-6-4 6-6-3-1 4-8 1-1-4-7 4-8-9h-5l2-7-13-8-13 3-7-11-6 7-12 1-8-6-8 7-16 5-7 10-9-1-5 9h-4l-6 10-4 1-8 3-5 11v5l-9 5-3 1-8 10-1 10-6 2-4-3-1 1-1 4-4 6 2 12-9 5-6 11-6 1-4 5 1 2-2 1 1 1-3 3-8-1v-5l-1-4-11 1-1 7-3 2h-3l-3 1v3l-2 5-7 2-1-5h-2v-3l-3 3-9 8-5-5-6 4-6-4-1-3-2-2 2-6-1-2 2-3-1-5-3 4-6 1-5 5h-10l-9-11h-9l1-7h-6l-7 8-6-1-3-6h-5l1-3-1-5-4-7-10-5-2 4h-8l-3 7h-5l-3 4-4-1-7 4-1 8-10 4-2-3h-3l-2 2h-6l-3-5 5-5 1-5-6-8 6-9-4-9 6-10-5-10 5-14-5-3v-5l-8-14h10l7-4-1-8 16-15h8l14-13h7l1-14 10-7v-5l-12-12-9-2-7 6-7-8v-7l4-8-4-6 3-7-5-4-11 4-5-6-8 5-6-5H7l2-9-5-4 9-10 7-8 7 1 4-5 1-10h-6l-2-9 4-2-4-8-9-4-5 6-9-5 6-7-3-4 7-6-5-4 6-7h6l5-9v-6l4-6 7 5 3-5 17 1 7-4v-7l8-6 4 3h9l11 3 2-7h9v7l8 5 8 3 3-3v-5l8-4 1 2 4-1 3 1 2 3h5l2-4 8 1 3-9 4 5h8l6-3 5 1 3-9h8l5-7h8v18l3-1h3l5 10 11-1 15-3 5 1 5 10h10v11l4 2 1 6 8 7 6-5 6 6 2-7 11 1 1-6-5-4 4-5-3-3-8 6-5-6 3-5 13-1 2-7-2-8 2 2h6l8-11 11 6h12l6-6h12l5 6 2 4-2 4 3 7h7v2l-1 2 2 3 5 1-1 4-5 3-8-1-2-5-3-1-6 1-4 8 7 4 4-4 4 15 8-2 7 4 7 10v5h-2l-3-2h-10v2l1 1-1 2-2 2-4 4 2 1 3-1 1 1-1 2 1 5 1 2v11l-6 5 4 9-3 8 8 12 8-1 1 3-1 5 5 4 8-7-2-8 7-3 4 6-6 9 9 1 5 2 7-7v-8l9-3h9l4 6 11-4 3 4-3 6 5 2-2 8 11 3h10l4-8 9-1 5 6-4 8Z"/>
  <path fill="#8d9359" stroke="#fff" stroke-width="1" d="m233 39 2 3-7 3h-3v2l1 4-1 1-5-1-5 5-6 15-3 1V54h-8l-5 7h-8l-3 9-5-1-6 3h-8l-4-5-3 9-8-1-2 4h-5l-2-3-3-1-4 1-1-2-8 4v5l-3 3-8-3-8-5v-7h-9l-2 7-11-3h-9l-4-3-8 6v7l-7 4-17-1-3 5-7-5 1-7-8-1-3-5-3 3-2-3 4-8 10-1 4-5-4-7-8 7h-2v-8L6 49l1-8-6-3-1-12 10-9 1-7 3-2h16l9 3 8-3 8 5 10-4 5 3 14-4 8 4 10-1 8-3 9-8 6 6 6 7 6 1 16-1 15 3 6 7h6l7 3h14l13 7 15-1 6 2-2 5Z"/>
</svg>
