<svg xmlns="http://www.w3.org/2000/svg" viewBox="0 0 496 393">
  <path fill="#8d9359" stroke="#fff" stroke-width="1" d="m277 97 1 12-3 11-1 21-8 5 1 11-9 8-2 2 1 2-1 2-4-1-9 11 5 9h3l1-2 3 1-2 1-1 5-6 4 2 5-2 10 6 12-7 8v5l-7 5-1 6 6 4 3 7-6 9 4 5-1 7-7 4-2 4h-5l-5 4-1-3-15-4v-8l-7 8-1 7-5 5-6-4-2 9 8 2v8l-4 7 8 9-12 10 3 4-7 4-9 1-4 12-2 2 3 4v1h-7l-11 8-3 9 3 5-7 3-5-4 2-7-10-4-6 4h-4l1-5-3-2 8-4-2-3-2-4-5 1-7-3-3-10h-2l-4 10-8-1-1-5-6-3-3 3-11-13-5 1 2-5-9-8 4-7 6-3-2-7 2-4 7 3 5-4v-5l1-5-2-7 2-6-6-9v-9l-10-5-6-10-9-5-4 1-3-5-8 2-3-4h-5l-3-10 4-12h9l7-11h-2l-4-13 8-1 3-6 7-3 2-7-7-9 3-4-1-4h6l4-8h8l4 6 4-1 4 2 6-4 3-7 5-5-2-2 1-3-1-2-2 2h-1l-2-5v-10h-3l1-7 7-12-4-5 8-7-3-4 3-8 8-3 3-4h8v-6l1-1h3l4-1 2-5 9-2-4-6 4-10 5-2 6 7h5l1 5 5 2 5-4 7 3 7-6 10 7h6l3 3-1 1 4 1 5 6 7-5 12-3 9 5 6-5 4 5 6-2h15l3 11 2 1 3-2 1 7-7 10 6 8Z"/>
  <path fill="#8d9359" stroke="#fff" stroke-width="1" d="m142 44-4 9 4 7-9 2-2 5-4 1h-3l-1 1v6h-8l-3 4-8 3-3 8 3 4-8 7 4 5-7 12-1 7h3v10l2 5h1l2-2 1 2-1 3 2 2-5 5-3 7-6 4-4-2-4 1-4-6h-8l-5-5h-8l-6-6 6-8 13 1v-11l-11-5-6-1-4-9-5-1-2-3h-6l-2-8-8 4-6-6-9 2-4-2 4-8-1-4v-3l-2-1-2 2 2 1-1 2H3v-3l-3-3 3-3 1-1h2l1-2 2 2 2 3h2v-3l3-3-3-5 1-2 2 1 2-2-1-7 4-3 4-3-3-9 9 1 5-10 1-4 6-3 3-7-2-2L63 0l3 3 9 4 3-7 11 3 4 7-6 16 5 1 5-5 20 9v3l7-2 3 6 11-2 1 3 4-4 5 1-1 6-5 2Zm341 55-5 7 4 10h4l3 5-2 5 3 5-2 12-8 4-1 7-15 8-8 10-23 9-11 12-8 3-6 4-4 9-1 4-9 7-10 1-9 4-8 3-7 3h-10l-13 8-9 1-8 7-12 1-10 9-3 4-3 7-6 4-5 7 5 5-1-4 1-2 4 2v2l5 5h6l-4 4-9 4-2 5-1 4-10 4-1-3 7-3h3l1-3h-4l-8 1-7 10-1 5h-2l1-3-3-3-5-7-5 2-5-5h-2l1-4-4-4-5-1h-2l2-4 7-4 1-7-4-5 6-9-3-7-6-4 1-6 7-5v-5l7-8-6-12 2-10-2-5 6-4 1-5 2-1-3-1-1 2h-3l-5-9 9-11 4 1 1-2-1-2 2-2 9-8-1-11 8-5 1-21 3-11-1-12-6-9 7-9-1-7-3 2-2-1-3-11-3-5-1-5 2-8h8l5 4 5-1 3 2 20 6v5l15-3 10 12-1 7 5 3-3 4 2 6 6 1 4-4 11-5 8 1 12 4 1 4 3 5h6l2-5 8-1 8-4 10 5h4l8 5 3-3 8 2v-7l3-3h7l4-3 8-3h10l4 4 2-2h7v4l-1 3 1 3 4-2 3 3 6-1-3 10-5 3-5-4Z"/>
</svg>
