<svg xmlns="http://www.w3.org/2000/svg" viewBox="0 0 336 476">
  <path fill="#8d9359" stroke="#fff" stroke-width="1" d="m335 74 1 16-4 16-2 28-9 7 1 14-13 12-3 3 2 1-1 4-6-1-11 14 6 13h4l2-3h3l-2 3-1 7-9 5 4 7-3 13 8 15-10 12v8l-9 5-2 9 9 6 3 9-8 12 6 6-2 10-9 6-3 5h-6l-7 5-1-4-20-4-2-13-9 12-1 9-7 8-7-6-3 12 11 2v13l-6 9 10 12-16 13 5 6-10 6h-12l-5 17-3 2 3 5v2h-10l-14 10-5 13 6 6-11 5-7-5 4-11-14-5-8 6-5-1 1-6-4-2 11-5-4-5-2-5-6 1-10-4-4-13h-3l-4 13-12-1-1-7-8-4-5 3-14-17-6 1h-2l3-6-12-11 6-10 7-4-1-10 2-6 10 5 6-6-1-6 3-6-4-10 3-9-8-11 1-12-13-8-9-13-12-8-5 2-5-6-12 2-3-5-6 1-4-15 5-16h12l10-14-4-1-5-17 10-1 5-9 9-3 4-10-10-12 4-7-2-5h8l6-10 11-1 6 9 4-1 7 3 7-6 4-10 7-6-1-3v-5l-1-2-4 2h-1l-3-6 1-13-4-1v-9l11-16-6-7 11-10-4-5 4-11 10-4 4-6 12-1-1-7 2-1h5l5-1 2-7 13-2-5-9 3-14 9-2 9 9h6l1 7 6 4 8-7 9 4 9-8 14 9h8l3 4-1 3h6l7 9 9-7 16-5 13 8 7-7 6 7 8-3h21l4 15h2l4-2 1 11-8 12 7 11Z"/>
</svg>
