<svg xmlns="http://www.w3.org/2000/svg" viewBox="0 0 368 387">
  <path fill="#8d9359" stroke="#fff" stroke-width="1" d="m368 289-2 16-7 7h-10l-12 12-15 16 9 7-4 14h-1l-9 3-7-5-13-1v19h-8l-8 8-11-2-12 4 1-7-5-2-6 5-14 1 1-10-16-5-17 8h-8v-7l-4-4-3 4-2 4h-3l-1-2-3 8-13 7-11-4-3-11-2-10 5-8 13-6 2-6-1-10-11 2-6-3v-13h-12l-5 10-12 2-10-4-10 7-16 1v7l-9 5-7 7-10 5-7 7-4-8 1-38 10 2 2-5-5-9 29-17-8-7-10 8-8-4v-8l26-18-3-6-19 11-4-1-4-10-11-7 7-6 2-9 4-2-2 8 4 5 8-2-3-9 8-8v-10l-9-2-8 4v9l-6 2-1-1-11 11-8-16 7-22 8-1 5-9h10l1-10-5-4-6 8-11 1-6 11-8-10 2-10h-4l-2-6 7-6-7-7-11 1-3 8-7-10 13-13-8-13 9-7 7 4 8-9-4-4-4 6-3-2v-6l7-9h7l9 5 7-11 10 4 2-3-6-10h8l5-7h5l3-4 6 9 17 2 7-5 12 4 13-12 17 6 2-11 8 1v9l7 7 1-14 4-7-2-1-6 2-12-12V40l16-3 4-10 15-4 6-12h11l7-8h8l1 8-4 4 1 6 11-5 2-6 15-10 3 2-3 4 2 3h4l6 6 20-2 16 10v8l15 15 26-1 2 5v11l-17 15 2 19 8 5v13l16 5v15h4l11-13 8 10-7 9-16 3-7 12 4 5 4-5 6 8 12 2-2 10-6 11 1 10-10 14h-9l-10 10 8 7-11 9 5 7-9 11 15 8 8-10 14 8 6 12-7 5 5 12 9 1Z"/>
</svg>
